<svg xmlns="http://www.w3.org/2000/svg" viewBox="0 0 38 38">
  <path fill="#1A6DFF" fill-rule="evenodd" d="M10.465 4.2a17.015 17.015 0 0 0-7.98 10.4 16.997 16.997 0 0 0 1.01 11.644l-1.65.953C-2.383 18.324.854 7.551 9.513 2.553A18.94 18.94 0 0 1 19.01 0c2.833 0 5.631.637 8.183 1.846l-.962 1.666a17.123 17.123 0 0 0-7.221-1.609c-2.987 0-5.942.795-8.546 2.298l.001-.001Zm19.364-.829-.96 1.664a17.084 17.084 0 0 1 7.15 11.762c.293 2.23.141 4.497-.447 6.669a17.013 17.013 0 0 1-7.98 10.4 17.142 17.142 0 0 1-7.04 2.222V38a18.943 18.943 0 0 0 7.992-2.486c9.102-5.255 12.22-16.894 6.966-25.996a18.945 18.945 0 0 0-5.681-6.147ZM5.024 28.877l-1.658.957c3.335 4.847 8.595 7.713 14.14 8.163v-1.911a17.199 17.199 0 0 1-12.482-7.209Zm28.367-8.156h-1.919c-.827 6.13-6.09 10.873-12.443 10.873-6.926 0-12.56-5.635-12.56-12.56 0-4.095 1.97-7.737 5.01-10.031L10.52 7.34c-3.608 2.63-5.954 6.886-5.954 11.692 0 7.988 6.475 14.464 14.463 14.464 7.416 0 13.525-5.584 14.362-12.776v.001ZM19.029 4.57c7.53 0 13.713 5.754 14.397 13.105h-1.912c-.68-6.29-6.018-11.203-12.485-11.203-1.744 0-3.405.358-4.915 1.003l-.958-1.66A14.405 14.405 0 0 1 19.03 4.57h-.001Zm5.328 14.462a5.328 5.328 0 1 0-10.656 0 5.328 5.328 0 0 0 10.656 0Zm-8.754 0a3.43 3.43 0 0 1 3.426-3.425 3.43 3.43 0 0 1 3.425 3.425 3.43 3.43 0 0 1-3.425 3.426 3.43 3.43 0 0 1-3.426-3.426Zm8.374-8.57c4.733 2.733 6.354 8.785 3.622 13.518a9.89 9.89 0 0 1-8.58 4.95 9.835 9.835 0 0 1-3.56-.672l.965-1.67a7.95 7.95 0 0 0 2.596.439 8.023 8.023 0 0 0 6.93-3.998 7.941 7.941 0 0 0 .8-6.065 7.94 7.94 0 0 0-3.725-4.854 7.989 7.989 0 0 0-3.987-1.072 8.024 8.024 0 0 0-6.931 3.998 7.94 7.94 0 0 0-.799 6.065 7.935 7.935 0 0 0 2.48 3.965l-.967 1.674c-3.741-3.006-4.836-8.371-2.362-12.656a9.892 9.892 0 0 1 13.518-3.622Z" clip-rule="evenodd"/>
</svg>